HIERARCHY
ROOT Hips
{
 OFFSET 0.000000 0.000000 0.000000
 CHANNELS 6 Xposition Yposition Zposition Yrotation Xrotation Zrotation
 JOINT Chest
 {
  OFFSET 0.000000 9.585900 0.002600
  CHANNELS 3 Yrotation Xrotation Zrotation
  JOINT Chest2
  {
   OFFSET 0.000000 9.601200 -0.005300
   CHANNELS 3 Yrotation Xrotation Zrotation
   JOINT Chest3
   {
    OFFSET 0.000000 9.561800 0.000000
    CHANNELS 3 Yrotation Xrotation Zrotation
    JOINT Chest4
    {
     OFFSET 0.000000 9.552100 0.000000
     CHANNELS 3 Yrotation Xrotation Zrotation
     JOINT Neck
     {
      OFFSET 0.000000 14.453000 0.000000
      CHANNELS 3 Yrotation Xrotation Zrotation
      JOINT Head
      {
       OFFSET 0.000000 8.936500 -0.011300
       CHANNELS 3 Yrotation Xrotation Zrotation
       End Site
       {
        OFFSET 0.000000 17.073600 -0.006000
       }
      }
     }
     JOINT RightCollar
     {
      OFFSET -2.921100 9.558500 0.000000
      CHANNELS 3 Yrotation Xrotation Zrotation
      JOINT RightShoulder
      {
       OFFSET -13.519700 0.000000 0.000000
       CHANNELS 3 Yrotation Xrotation Zrotation
       JOINT RightElbow
       {
        OFFSET 0.000000 -29.696600 0.000000
        CHANNELS 3 Yrotation Xrotation Zrotation
        JOINT RightWrist
        {
         OFFSET 0.000000 -24.004700 0.000000
         CHANNELS 3 Yrotation Xrotation Zrotation
         End Site
         {
          OFFSET 0.000000 -17.728500 0.000000
         }
        }
       }
      }
     }
     JOINT LeftCollar
     {
      OFFSET 2.921100 9.558500 0.000000
      CHANNELS 3 Yrotation Xrotation Zrotation
      JOINT LeftShoulder
      {
       OFFSET 13.519700 0.000000 0.000000
       CHANNELS 3 Yrotation Xrotation Zrotation
       JOINT LeftElbow
       {
        OFFSET 0.000000 -29.696600 0.000000
        CHANNELS 3 Yrotation Xrotation Zrotation
        JOINT LeftWrist
        {
         OFFSET 0.000000 -24.004700 0.000000
         CHANNELS 3 Yrotation Xrotation Zrotation
         End Site
         {
          OFFSET 0.000000 -17.728500 0.000000
         }
        }
       }
      }
     }
    }
   }
  }
 }
 JOINT RightHip
 {
  OFFSET -7.771700 -0.012900 -0.001300
  CHANNELS 3 Yrotation Xrotation Zrotation
  JOINT RightKnee
  {
   OFFSET 0.000000 -40.869800 0.001200
   CHANNELS 3 Yrotation Xrotation Zrotation
   JOINT RightAnkle
   {
    OFFSET 0.000000 -39.717900 0.002100
    CHANNELS 3 Yrotation Xrotation Zrotation
    JOINT RightToe
    {
     OFFSET 0.000000 -4.965400 11.033500
     CHANNELS 3 Yrotation Xrotation Zrotation
     End Site
     {
      OFFSET 0.000000 -1.423100 5.872300
     }
    }
   }
  }
 }
 JOINT LeftHip
 {
  OFFSET 7.771700 -0.012900 -0.001300
  CHANNELS 3 Yrotation Xrotation Zrotation
  JOINT LeftKnee
  {
   OFFSET 0.000000 -40.869800 0.001200
   CHANNELS 3 Yrotation Xrotation Zrotation
   JOINT LeftAnkle
   {
    OFFSET 0.000000 -39.717900 0.002100
    CHANNELS 3 Yrotation Xrotation Zrotation
    JOINT LeftToe
    {
     OFFSET 0.000000 -4.965400 11.033500
     CHANNELS 3 Yrotation Xrotation Zrotation
     End Site
     {
      OFFSET 0.000000 -1.423100 5.872300
     }
    }
   }
  }
 }
}
MOTION
Frames: 15
Frame Time: 0.008333
0.000000 85.388000 0.000000 0.000000 -5.767877 0.000000 0.000000 11.653817 0.000000 0.000000 -5.885947 0.000000 0.000000 -0.000000 0.000000 0.000000 -0.000000 0.000000 0.000000 12.528835 0.000000 0.000000 0.711642 0.000000 0.000000 -0.000000 0.000000 0.000000 0.000000 -90.000000 0.000000 -2.309062 0.000000 0.000000 2.309062 0.000000 0.000000 -0.000000 0.000000 0.000000 -0.000000 90.000000 0.000000 -2.309062 0.000000 0.000000 2.309062 0.000000 0.000000 8.520406 0.000000 0.000000 1.905762 0.000000 -0.000000 -4.658285 0.000000 0.000000 -0.000000 0.000000 0.000000 8.520406 0.000000 0.000000 1.905762 0.000000 -0.000000 -4.658285 0.000000 0.000000 -0.000000 0.000000
-17.120522 58.082692 71.627097 -178.760215 -35.309037 -0.976119 -0.140094 25.004875 5.084517 -0.176107 4.032752 0.548456 -0.263340 6.443760 0.871944 -0.504656 20.792923 2.796496 -1.246523 15.092294 -4.966224 -0.373474 -7.676625 -8.779059 5.784364 0.679961 -1.973915 19.039560 -25.453506 -22.082875 19.490555 -66.034760 13.174556 18.036310 2.113282 -35.518099 -9.920515 -2.114790 -6.129946 -7.082024 -28.132380 0.993947 -67.847788 -54.705820 39.526864 -15.705795 -4.219713 22.910479 6.463099 -35.749326 -5.777024 -5.351557 66.103978 -8.044408 4.792339 10.741072 8.791103 -0.725956 -6.011209 1.086515 -9.617868 -42.345302 -2.318072 25.517182 58.893536 23.809667 -8.152168 39.712033 2.435263 0.075026 -18.069200 -6.747768
-17.117390 58.083676 71.627202 -178.751448 -35.309742 -0.969612 -0.152368 24.994077 5.076817 -0.176873 4.031851 0.546088 -0.269032 6.423627 0.864505 -0.518443 20.787959 2.767512 -1.183470 15.130972 -4.922581 -0.289219 -7.651729 -8.740694 5.798634 0.699832 -1.946377 19.093196 -25.489791 -22.089815 19.383319 -65.933424 13.268917 18.050695 2.114813 -35.509136 -9.906112 -2.077902 -6.115817 -7.010806 -28.161775 0.883461 -67.845036 -54.640817 39.503801 -15.706806 -4.134494 22.815518 6.418405 -35.747871 -5.749283 -5.354133 66.100782 -8.095934 4.794889 10.730559 8.797898 -0.723374 -6.004116 1.088761 -9.666907 -42.340260 -2.318440 25.490632 58.884197 23.791698 -8.162848 39.721386 2.370230 0.092557 -18.074559 -6.740791
-17.113966 58.085437 71.626316 -178.752471 -35.318269 -0.953098 -0.162234 24.991817 5.061866 -0.181173 4.015082 0.543591 -0.265972 6.441265 0.860518 -0.526886 20.778831 2.754876 -1.131932 15.144915 -4.896304 -0.198596 -7.628282 -8.699865 5.807061 0.703621 -1.938150 19.127529 -25.517605 -22.090239 19.304988 -65.860051 13.340164 18.043689 2.114086 -35.513731 -9.897362 -2.067444 -6.119733 -6.966772 -28.176021 0.807528 -67.743655 -54.620971 39.475589 -15.755670 -4.079267 22.681248 6.395735 -35.738120 -5.734862 -5.353501 66.100175 -8.133619 4.795615 10.718354 8.805537 -0.724550 -5.997303 1.089138 -9.707789 -42.331449 -2.317156 25.526702 58.875505 23.802221 -8.141408 39.723917 2.383820 0.082301 -18.078092 -6.756801
-17.108594 58.087142 71.625513 -178.751744 -35.326676 -0.943882 -0.172736 24.984554 5.052524 -0.178987 4.026412 0.540022 -0.268214 6.434430 0.858396 -0.527503 20.783462 2.751583 -1.089281 15.138652 -4.874842 -0.100439 -7.607536 -8.657947 5.806172 0.683884 -1.937256 19.149683 -25.524529 -22.081769 19.268470 -65.816212 13.373321 18.041739 2.114187 -35.517589 -9.902131 -2.068004 -6.122697 -6.938098 -28.180437 0.770795 -67.632732 -54.629928 39.459478 -15.798014 -4.034073 22.550303 6.360906 -35.728332 -5.704074 -5.360453 66.097068 -8.186784 4.796099 10.704830 8.815097 -0.727566 -5.989013 1.089977 -9.754438 -42.322877 -2.306637 25.560465 58.869216 23.812377 -8.122155 39.726408 2.396469 0.074065 -18.081608 -6.774559
-17.102510 58.088202 71.625509 -178.749954 -35.330157 -0.935340 -0.196612 24.962978 5.039396 -0.175916 4.037593 0.533642 -0.272180 6.421594 0.852706 -0.531655 20.790459 2.738561 -0.986559 15.128619 -4.818465 -0.035360 -7.576233 -8.628960 5.819675 0.677169 -1.926336 19.167140 -25.542687 -22.071496 19.167049 -65.736171 13.476255 18.034862 2.107498 -35.532393 -9.890085 -2.048732 -6.124361 -6.915165 -28.187446 0.738968 -67.562694 -54.629837 39.456098 -15.823933 -3.985427 22.438597 6.322397 -35.722386 -5.668100 -5.380620 66.091177 -8.255608 4.790365 10.686054 8.816770 -0.721205 -5.971326 1.096024 -9.796934 -42.317486 -2.296414 25.564074 58.863655 23.801717 -8.106332 39.732827 2.384215 0.074105 -18.090114 -6.779268
-17.094627 58.089038 71.625661 -178.749258 -35.333778 -0.934367 -0.208780 24.954542 5.036412 -0.170266 4.034859 0.531727 -0.272039 6.427294 0.849678 -0.544386 20.775941 2.723071 -0.926759 15.130917 -4.780368 0.071216 -7.567692 -8.589338 5.824805 0.662350 -1.915405 19.182923 -25.561944 -22.053073 18.951006 -65.627878 13.689945 18.071585 2.087016 -35.557124 -9.892111 -2.038448 -6.133052 -6.876210 -28.196229 0.680098 -67.513817 -54.593188 39.460264 -15.848725 -3.937197 22.335909 6.300336 -35.717798 -5.639234 -5.405144 66.087152 -8.306582 4.792638 10.676162 8.820719 -0.726215 -5.963255 1.097943 -9.838775 -42.310562 -2.277593 25.571375 58.858602 23.804036 -8.122851 39.729658 2.343468 0.086827 -18.089493 -6.776341
-17.087203 58.088393 71.627658 -178.738900 -35.325632 -0.935319 -0.234074 24.936232 5.027160 -0.170265 4.029741 0.529427 -0.273993 6.423475 0.845713 -0.552749 20.771629 2.709537 -0.861057 15.131345 -4.742900 0.182643 -7.563397 -8.550388 5.834350 0.668867 -1.904630 19.192842 -25.586371 -22.043387 18.836663 -65.569642 13.809982 18.008800 2.092798 -35.564259 -9.881054 -2.020387 -6.135088 -6.827985 -28.214678 0.566038 -67.510449 -54.511856 39.496237 -15.871058 -3.905935 22.255486 6.285753 -35.725516 -5.628231 -5.424525 66.085364 -8.338731 4.794700 10.667724 8.823068 -0.730418 -5.955962 1.098111 -9.881422 -42.315582 -2.264897 25.520614 58.854473 23.768367 -8.153823 39.744686 2.257267 0.119620 -18.094914 -6.759995
-17.081027 58.088386 71.628554 -178.750420 -35.328111 -0.917757 -0.237279 24.933956 5.012748 -0.176748 4.020307 0.529849 -0.288931 6.405183 0.839221 -0.574674 20.755825 2.688349 -0.770736 15.156431 -4.705015 0.296860 -7.563913 -8.508845 5.869183 0.700637 -1.893277 19.200180 -25.607157 -22.036160 18.716502 -65.517733 13.933643 18.000885 2.090587 -35.568146 -9.846384 -1.978107 -6.141816 -6.796510 -28.218193 0.501090 -67.505553 -54.464585 39.538619 -15.887931 -3.910525 22.197028 6.300660 -35.723685 -5.633912 -5.436959 66.086980 -8.354444 4.801754 10.657108 8.826732 -0.738641 -5.947837 1.095764 -9.895815 -42.312360 -2.262788 25.506706 58.853839 23.752172 -8.157243 39.747335 2.221823 0.131624 -18.097010 -6.754696
-17.074233 58.088047 71.629689 -178.759507 -35.331099 -0.908999 -0.239670 24.932629 5.005297 -0.199028 3.999893 0.528149 -0.264108 6.426320 0.837877 -0.594170 20.740321 2.679484 -0.701341 15.151815 -4.667164 0.412657 -7.569701 -8.463971 5.886121 0.701441 -1.889064 19.202959 -25.623962 -22.028706 18.593678 -65.469498 14.055585 17.993812 2.086002 -35.572350 -9.835764 -1.966763 -6.145855 -6.781403 -28.213290 0.465081 -67.508474 -54.432767 39.571404 -15.897346 -3.870781 22.144569 6.316029 -35.723279 -5.630219 -5.430449 66.091209 -8.349520 4.784716 10.654948 8.824616 -0.736962 -5.945673 1.097986 -9.909237 -42.308770 -2.256053 25.486024 58.858033 23.732819 -8.142575 39.741363 2.194726 0.132514 -18.093692 -6.744389
-17.069363 58.087123 71.631418 -178.771893 -35.332315 -0.892765 -0.249465 24.924185 4.990701 -0.198865 3.998783 0.527444 -0.268301 6.421906 0.833618 -0.593845 20.743967 2.674120 -0.634701 15.142193 -4.626231 0.529282 -7.579728 -8.417416 5.896386 0.694072 -1.885183 19.202338 -25.636286 -22.020833 18.534139 -65.433590 14.123652 17.977432 2.084582 -35.575780 -9.832957 -1.963823 -6.149742 -6.769953 -28.204847 0.450515 -67.505460 -54.417660 39.597686 -15.914729 -3.849056 22.110816 6.375175 -35.724143 -5.660671 -5.456923 66.098810 -8.342871 4.772471 10.653812 8.822058 -0.733015 -5.944911 1.097816 -9.898879 -42.308382 -2.264084 25.457761 58.862683 23.710480 -8.124521 39.736370 2.160449 0.117733 -18.090876 -6.713891
-17.065637 58.086719 71.632196 -178.785819 -35.342832 -0.877045 -0.270249 24.915169 4.976798 -0.188292 4.009210 0.524187 -0.269773 6.419585 0.828662 -0.599334 20.745539 2.672878 -0.563175 15.134216 -4.586706 0.648888 -7.591649 -8.370385 5.907017 0.687598 -1.886297 19.199301 -25.645507 -22.013997 18.478664 -65.402461 14.189770 17.960725 2.080934 -35.579519 -9.821645 -1.957728 -6.158993 -6.765966 -28.200068 0.438044 -67.517224 -54.393724 39.657076 -15.969452 -3.859591 22.077474 6.404747 -35.714800 -5.676227 -5.453516 66.103130 -8.325156 4.763228 10.646616 8.818187 -0.731532 -5.938049 1.096096 -9.901475 -42.298691 -2.264821 25.458028 58.862795 23.699941 -8.107048 39.736968 2.160080 0.136918 -18.087288 -6.721029
-17.063016 58.085839 71.633442 -178.796336 -35.351951 -0.866489 -0.281509 24.915042 4.969937 -0.189564 4.009000 0.523486 -0.267015 6.419548 0.826670 -0.615304 20.742467 2.669877 -0.485386 15.129899 -4.547977 0.773510 -7.601852 -8.322057 5.922950 0.685868 -1.890497 19.196681 -25.653151 -22.011888 18.366132 -65.374571 14.299036 17.966534 2.077795 -35.573764 -9.803529 -1.950333 -6.173336 -6.776851 -28.191705 0.425478 -67.547245 -54.359973 39.735329 -15.996939 -3.889614 22.065366 6.430544 -35.707188 -5.689897 -5.458742 66.106374 -8.315532 4.760991 10.641407 8.817651 -0.732056 -5.932802 1.093142 -9.929171 -42.293186 -2.252253 25.495119 58.860988 23.710414 -8.072301 39.735298 2.157181 0.124305 -18.082135 -6.705524
-17.062797 58.084259 71.635491 -178.809848 -35.357155 -0.850827 -0.284028 24.915752 4.960092 -0.195159 4.006316 0.524613 -0.286582 6.408314 0.831440 -0.612399 20.750431 2.660204 -0.408958 15.124261 -4.505575 0.900914 -7.609431 -8.271276 5.935082 0.682466 -1.893262 19.197392 -25.658300 -22.013747 18.225208 -65.343858 14.431284 18.007296 2.073688 -35.562905 -9.791906 -1.951190 -6.187953 -6.787287 -28.174196 0.434296 -67.595926 -54.336191 39.822870 -16.016989 -3.927670 22.067601 6.486311 -35.705131 -5.730509 -5.472314 66.113715 -8.288955 4.762795 10.643688 8.816805 -0.730966 -5.934935 1.087186 -9.921507 -42.290766 -2.259204 25.466401 58.867994 23.677800 -8.027254 39.733465 2.138810 0.120462 -18.074028 -6.678427
-17.062502 58.082725 71.637328 -178.826508 -35.365416 -0.845538 -0.278836 24.919771 4.963735 -0.191121 4.008672 0.522754 -0.302000 6.398311 0.840210 -0.616780 20.751944 2.655606 -0.333283 15.118633 -4.461438 1.026267 -7.616983 -8.216972 5.943879 0.682839 -1.900034 19.199359 -25.659983 -22.014486 18.187190 -65.331262 14.468751 18.018386 2.073563 -35.552909 -9.784981 -1.954169 -6.202812 -6.790435 -28.156052 0.443592 -67.773415 -54.265500 40.003180 -15.934929 -3.953479 22.069842 6.507246 -35.698601 -5.739892 -5.502135 66.110521 -8.291539 4.766533 10.642337 8.802031 -0.720462 -5.927563 1.086911 -9.922956 -42.283555 -2.251549 25.437747 58.875142 23.647633 -7.964866 39.731043 2.091525 0.094444 -18.065590 -6.613752
